<?xml version="1.0" encoding="utf-8"?><svg viewBox="0 0 162 24" xmlns="http://www.w3.org/2000/svg" xmlns:xlink="http://www.w3.org/1999/xlink"><style>:root>svg{display:none}:root>svg:target{display:block}</style><svg fill="none" viewBox="0 0 11 6" id="arrow" xmlns="http://www.w3.org/2000/svg"><path d="M5.594 5.333l4.838-5H.756l4.838 5z" fill="#2B6482"/></svg><svg fill="none" viewBox="0 0 46 15" id="logo" xmlns="http://www.w3.org/2000/svg"><g opacity=".75"><path d="M36.803 13.65c-1.313 0-3.123-.225-4.98-1.17a65.913 65.913 0 00-1.502-.781c-.478-.252-.97-.51-1.427-.794-.66-.384-1.817-1.263-2.753-1.971a76.57 76.57 0 00-.97-.728 45.73 45.73 0 00-1.668-1.29l-.047-.033c-.034-.027-.068-.053-.101-.073l-.075-.053c-.013.007-.027.02-.04.027-.02.013-.04.026-.067.046l-.646.456c-.162.126-.33.239-.512.351-.047.033-.094.06-.141.093l-.667.436c-.861.543-1.797 1.125-2.773 1.64-.343.193-.707.371-1.05.543-.134.066-.27.133-.404.205-.12.053-.242.106-.357.166-.376.172-.767.35-1.164.503a23.871 23.871 0 01-3.204 1.058c-1.225.291-2.383.443-3.44.443a9.244 9.244 0 01-1.743-.152 7.477 7.477 0 01-1.635-.483 6.24 6.24 0 01-1.373-.847 5.565 5.565 0 01-.99-1.13 5.825 5.825 0 01-.821-2.647A5.729 5.729 0 012.71 4.76c.249-.549.572-1.051.969-1.495.249-.278.545-.555.875-.82.787-.655 1.817-1.151 2.968-1.449a9.964 9.964 0 011.71-.29A10.368 10.368 0 0110.99.697l.437.033.431.053a3.2 3.2 0 01.364.06l.067.012c.155.02.296.047.43.08.068.02.135.033.21.046.073.013.14.033.208.046l.417.113c.29.086.559.172.808.264.262.086.525.192.78.298.129.06.257.113.378.165.128.053.255.113.377.166.437.198.888.423 1.467.728a49.265 49.265 0 015.398 3.433l.491.357c.054-.033.095-.066.149-.106l.316-.225.505-.377c.249-.185.505-.377.76-.562l.633-.463.653-.45c.337-.231.687-.45 1.023-.661.108-.067.222-.133.33-.206.087-.052.175-.105.27-.158l.08-.047.7-.403c.08-.053.175-.093.262-.14.034-.012.068-.032.101-.045l.734-.37.768-.338.188-.086.195-.08.397-.152.101-.04c.101-.04.195-.079.296-.112l.404-.132c1.178-.384 2.289-.615 3.38-.701.067-.007.134-.02.208-.02.074-.007.155-.02.235-.02.048 0 .088 0 .128-.007.04 0 .088-.006.135-.006h.1c.943-.02 1.852.072 2.68.264.094.027.195.053.29.08.181.046.37.099.538.158l.114.04c.088.033.182.066.276.1l.384.165c.094.033.188.08.276.125.033.02.067.033.1.053l.182.1c.068.026.128.06.182.099l.35.211c.04.02.074.047.108.073.02.013.04.027.06.047l.162.119c.162.105.296.225.43.344.061.053.115.099.183.152l.276.278a.288.288 0 00.047.04c.033.032.067.059.094.092l.249.284c.013.027.034.047.054.073l.06.08.216.297c.054.06.087.133.128.199.02.04.04.072.067.112l.094.159.081.159c.168.297.303.635.384.999.188.8.127 1.27.127 1.29l-.1-.007c0-.013 0-1.27-.963-2.798l-.215-.298c-.007-.013-.02-.026-.027-.033-.027-.033-.047-.066-.081-.1l-.25-.284-.403-.39c-.054-.04-.1-.086-.155-.132a5.403 5.403 0 00-.43-.344l-.162-.113c-.054-.046-.114-.08-.168-.112l-.337-.212a1.08 1.08 0 00-.175-.093l-.182-.099-.08-.04c-.095-.046-.182-.092-.29-.132l-.384-.159a3.378 3.378 0 00-.39-.139c-.209-.086-.437-.138-.653-.198l-.155-.04c-.8-.192-1.676-.278-2.598-.264-.06.006-.128.006-.188.006-.068 0-.128.007-.189.007-.08 0-.148 0-.222.007-.033.006-.067.006-.1.006-.034 0-.068.007-.102.007-1.063.092-2.154.317-3.325.688l-.404.132c-.1.033-.195.066-.29.106l-.1.04-.586.218-.188.086-.754.33-.747.391c-.034.02-.068.033-.101.053-.088.04-.175.086-.256.132l-.78.43c-.095.053-.183.1-.27.152-.135.086-.27.166-.404.245-.33.205-.646.397-.949.609l-.653.45-.693.509c-.41.304-.801.595-1.198.893l-.317.238a.992.992 0 01-.087.06c-.014.006-.02.013-.034.02.014.013.034.02.047.033.034.026.068.046.101.072.027.014.04.02.06.04.54.397 1.085.82 1.67 1.29.242.172.566.424.942.708.936.708 2.107 1.594 2.767 1.985.343.225.72.416 1.084.608.114.06.222.12.336.179.801.417 1.333.694 1.495.774 3.203 1.588 6.872.999 6.912.999l.02.099c-.006.007-.787.198-1.992.198zM10.195.784c-.302 0-.619.013-.942.04a9.388 9.388 0 00-1.683.29c-1.117.291-2.12.774-2.9 1.39-.795.628-1.421 1.409-1.798 2.255a5.601 5.601 0 00-.458 2.633c.061.953.323 1.826.795 2.594.29.43.605.793.962 1.104.397.331.848.609 1.34.834.511.218 1.05.383 1.602.49a8.98 8.98 0 001.716.145c1.077 0 2.228-.146 3.406-.437 1.016-.245 2.06-.595 3.19-1.058.431-.172.855-.364 1.266-.556l.242-.112c.135-.067.27-.133.404-.205.35-.172.707-.351 1.043-.543a43.699 43.699 0 002.767-1.64l.666-.437c.08-.06.168-.12.256-.172.128-.086.262-.179.397-.271l.646-.457c.027-.013.047-.033.06-.04-.046-.033-.087-.066-.134-.099-.114-.086-.229-.165-.343-.251A48.826 48.826 0 0020.07 4.5a39.114 39.114 0 00-2.78-1.62 25.317 25.317 0 00-1.46-.728 10.59 10.59 0 00-.627-.278l-.242-.1a7.943 7.943 0 00-.66-.25A12.106 12.106 0 0010.99.816a7.889 7.889 0 00-.795-.033zm27.348.02c.478.046.936.118 1.373.224l.155.04c.223.053.451.112.66.198.128.04.27.086.397.14l.384.158c.108.04.195.086.296.14.027.012.054.026.08.039l.182.099c.061.026.135.066.182.1l.337.21c.054.034.114.074.175.12l.155.112c.154.106.303.232.437.351.054.046.108.093.162.132l.41.397.25.285c.033.033.06.073.087.106.007.013.02.026.027.033l.215.297a6.93 6.93 0 01.794 1.76l-.04-.165a3.716 3.716 0 00-.377-.98l-.08-.158-.088-.159a1.07 1.07 0 01-.068-.119 1.097 1.097 0 00-.12-.185l-.216-.298c-.014-.026-.034-.046-.054-.073-.02-.026-.04-.046-.06-.072l-.243-.278a.949.949 0 00-.08-.086c-.02-.014-.034-.033-.048-.047l-.269-.27c-.06-.047-.114-.1-.175-.153-.141-.12-.27-.232-.424-.337l-.162-.113c-.02-.013-.04-.026-.067-.046a.824.824 0 00-.094-.066l-.35-.212c-.054-.033-.108-.066-.175-.093l-.189-.099c-.033-.02-.067-.033-.1-.053-.088-.046-.169-.092-.263-.119l-.39-.165a12.46 12.46 0 00-.276-.1l-.122-.04a6.21 6.21 0 00-.531-.158c-.101-.026-.196-.053-.29-.08-.444-.099-.915-.171-1.407-.218zm-1.292-.04h-.047c-.047 0-.088 0-.128.006-.08.007-.175 0-.262.014h.094c.06-.007.128-.007.188-.007.054-.007.101-.007.155-.013z" fill="url(#bpaint0_linear_0_227)"/><path d="M44.376 5.778a2.572 2.572 0 00-.398-1.224l-.08-.158-.095-.16a.997.997 0 01-.067-.112c-.04-.066-.074-.132-.128-.198l-.215-.298-.06-.08c-.02-.026-.041-.045-.055-.072l-.249-.284a.62.62 0 00-.094-.093c-.013-.013-.034-.026-.047-.04l-.276-.277c-.06-.053-.121-.1-.182-.153a4.408 4.408 0 00-.43-.344l-.162-.119a.369.369 0 01-.06-.046.608.608 0 00-.108-.073l-.35-.211c-.06-.034-.115-.073-.182-.1l-.182-.099c-.033-.02-.067-.033-.1-.053a1.74 1.74 0 00-.277-.126l-.383-.165c-.095-.04-.189-.066-.283-.1-.04-.012-.08-.026-.114-.039-.169-.066-.357-.112-.539-.159l-.29-.079a10.953 10.953 0 00-2.678-.265h-.108c-.087.007-.162.007-.256.007-.033 0-.067 0-.1.007-.028 0-.061.006-.095.006h-.054l-.404.047a15.175 15.175 0 00-3.46.82l-.403.152c-.095.04-.189.08-.276.12-.04.019-.081.032-.115.052l-.39.165-.209.08-.188.092-.781.37-.72.411c-.182.1-.364.205-.539.31-.06.04-.128.074-.188.113l-.357.219a3.502 3.502 0 00-.35.225 4.647 4.647 0 00-.296.205c-.35.238-.707.476-1.043.74l-.653.484-.633.509c-.404.324-.808.655-1.191.972l-.014.007c-.007.007-.013.007-.013.013l-.014.013-.33.265-.134.106c-.06-.046-.121-.086-.189-.132l-.033-.02-.148-.106c-.047-.033-.095-.073-.149-.106a58.689 58.689 0 00-2.753-1.82 43.116 43.116 0 00-2.92-1.666 36.332 36.332 0 00-1.535-.741c-.25-.113-.525-.225-.788-.338-.27-.105-.538-.211-.814-.297a13.772 13.772 0 00-.835-.265l-.43-.112c-.075-.02-.149-.033-.223-.047-.074-.013-.148-.033-.222-.046a11.902 11.902 0 00-1.79-.218c-1.293-.06-2.498.08-3.568.403-1.097.324-2.113.86-2.921 1.542l-.054.053a6.2 6.2 0 00-1.764 2.467 6.065 6.065 0 00-.35 2.812v.026c.014.113.02.225.04.33l.055.351c.006.073.027.146.047.212.013.046.027.093.033.14.014.059.034.112.048.171.013.06.027.113.047.179.08.225.161.456.269.681l.08.165c.02.053.055.12.095.172l.195.318.101.159.222.297a.42.42 0 00.068.08c.02.02.04.046.053.066l.007.007c.047.046.088.092.128.145l.135.152.377.338.08.06.169.118.161.126.054.033c.04.027.088.053.121.08l.007.006c.047.027.094.053.141.086.074.046.148.093.222.126l.384.185c.942.417 2.073.642 3.271.642h.222c1.104-.014 2.262-.192 3.54-.536a22.233 22.233 0 003.265-1.184c.37-.16.72-.338 1.07-.51.155-.08.31-.152.472-.231.175-.1.35-.192.525-.285.316-.172.64-.344.942-.529.963-.549 1.865-1.164 2.773-1.793l.667-.476c.229-.159.444-.318.653-.483l.64-.49.114-.085c.033-.027.067-.04.107-.073l.115-.086.316-.252.014-.013c.006-.006.013-.013.02-.013l.027-.02c.383-.317.774-.628 1.157-.933l.667-.529.653-.483c.323-.245.666-.476.996-.701.114-.08.229-.152.343-.232a3.98 3.98 0 01.35-.218l.35-.218c.06-.04.128-.073.188-.113.175-.105.35-.211.532-.31l.727-.404.768-.37.188-.087.592-.25c.068-.027.135-.054.202-.087.06-.026.128-.06.195-.08l.404-.151c1.178-.437 2.322-.708 3.4-.814l.397-.046h.047c.027 0 .06 0 .094-.007.08-.007.155-.007.229-.007.04 0 .08-.006.121-.006l.108-.007h.181c.047 0 .095-.007.148 0l.451.007.223.006.228.027.438.046a8.622 8.622 0 01.545.093c.115.02.216.033.323.066l.431.106.04.013c.054.013.115.026.169.053l.208.073c.236.066.451.158.667.244l.128.053c.094.04.188.086.276.133.033.02.067.033.1.053l.081.04c.101.046.202.098.29.151l.356.205c.115.08.23.16.344.232.027.02.054.033.08.053.027.02.061.04.081.053l.155.119c.04.033.08.073.128.106.06.053.121.099.175.152l.088.08c.161.158.316.304.45.469.822 1.019 1.09 1.806 1.219 2.309l.121.476-.04-.503zM1.883 9.556a1.04 1.04 0 00-.034-.14 1.04 1.04 0 01-.04-.198l-.054-.344c-.013-.053-.013-.112-.02-.172l-.02-.178a5.983 5.983 0 01.356-2.74A6.133 6.133 0 013.794 3.39c.788-.681 1.79-1.217 2.915-1.554 1.07-.331 2.241-.464 3.5-.41.545.026 1.124.092 1.757.211.054.013.114.027.168.033.088.02.175.033.256.06l.424.106c.08.026.168.052.249.079.195.06.39.119.586.185.242.073.457.159.693.252l.114.046c.108.046.223.092.33.139.148.06.31.125.458.198.471.205.976.443 1.528.728.97.503 1.945 1.052 2.9 1.647.89.543 1.791 1.138 2.747 1.806.088.06.182.126.27.185.073.053.14.1.215.152l-.72.55c-.216.165-.425.324-.653.482l-.653.483c-.855.59-1.784 1.218-2.767 1.787-.343.211-.707.41-1.063.595-.135.073-.27.145-.397.218l-.175.086c-.438.218-.889.45-1.36.648-1.137.51-2.201.9-3.251 1.191-1.218.331-2.396.51-3.5.523-1.245.026-2.43-.192-3.426-.629l-.384-.185c-.074-.033-.141-.08-.215-.126-.047-.026-.095-.059-.142-.085-.02-.014-.04-.027-.06-.034a.754.754 0 01-.108-.066l-.39-.304-.068-.073-.29-.258a1.332 1.332 0 01-.093-.106l-.162-.178c-.04-.04-.08-.086-.121-.133l-.222-.297c-.014-.02-.027-.033-.04-.053-.02-.033-.048-.06-.061-.093l-.195-.324c-.034-.046-.054-.1-.074-.152l-.081-.165a2.975 2.975 0 01-.202-.51c-.02-.053-.034-.1-.054-.152-.027-.066-.04-.132-.054-.198a1.882 1.882 0 00-.04-.14z" fill="url(#bpaint1_linear_0_227)"/><path d="M43.292 4.687c-.007-.007-.115-.225-.148-.278l-.202-.318a41.75 41.75 0 00-.06-.08c-.021-.026-.041-.045-.055-.072-.04-.046-.074-.1-.114-.145-.04-.053-.08-.1-.121-.153l-.337-.35-.397-.331c-.06-.046-.114-.08-.168-.12a3.525 3.525 0 00-.35-.23l-.37-.206c-.97-.496-2.14-.767-3.386-.8a13.192 13.192 0 00-2.457.165c-.35.053-.707.126-1.063.205-1.05.232-2.134.57-3.305 1.032-.41.16-.815.338-1.205.51l-.364.158c-.148.073-.29.14-.437.212-.357.172-.72.35-1.064.536-.99.51-1.952 1.092-2.88 1.654l-.687.45a29.51 29.51 0 00-.673.443l-.673.47-.088.066-.027-.02c-.619-.516-1.265-1.052-1.864-1.608-.754-.615-1.643-1.316-2.578-1.931-.33-.225-.687-.437-1.03-.642-.128-.073-.249-.146-.37-.218a8.915 8.915 0 00-.492-.265c-.08-.04-.161-.086-.242-.132-.229-.12-.485-.245-.76-.37-1.125-.517-2.215-.9-3.245-1.132A12.136 12.136 0 008.567.903a9.193 9.193 0 00-2.531.542c-.29.106-.566.218-.842.35C4.144 2.319 3.263 3 2.624 3.78l-.122.152a1.008 1.008 0 00-.074.106c-.014.02-.027.033-.034.047-.04.053-.074.105-.114.152-.034.053-.074.099-.115.159-.04.066-.074.132-.114.191-.087.146-.182.298-.249.45-.08.159-.141.324-.209.483-.027.066-.047.126-.074.192l-.1.344-.048.185-.033.179c-.088.47-.101.952-.034 1.422l.02.179.04.218c.02.106.04.212.074.318l.108.344c.027.086.067.178.101.258.014.026.02.053.034.079l.067.165a.64.64 0 00.034.073c.013.033.033.06.04.093v.006l.08.16c.028.052.055.112.088.165.027.04.048.079.074.112.108.172.216.344.35.51.149.204.33.403.505.595.088.099.196.192.29.278l.148.132a.33.33 0 01.054.046c.033.027.067.06.107.08.095.079.209.165.31.251l.33.225c.114.08.235.152.357.225.026.013.053.033.08.046.095.053.182.106.29.159.249.119.511.245.78.344l.202.08c.068.026.135.052.202.072l.418.126c.087.026.181.046.269.066l.162.04c.074.013.14.033.215.046.074.02.148.033.222.046l.43.06.23.033.666.053c.148.006.296.006.444.006h.148c.101 0 .202.007.303 0l.444-.026a14.653 14.653 0 003.467-.655l.41-.126c.135-.046.27-.099.404-.152l.404-.152c.068-.027.128-.053.195-.073l.202-.08.795-.337.754-.37c.201-.093.397-.199.592-.304.054-.027.108-.06.155-.086l.37-.205c.047-.027.087-.053.134-.073.081-.04.149-.086.223-.126.154-.1.31-.192.47-.284.31-.186.627-.377.936-.59.068-.045.142-.092.209-.138.155-.106.316-.212.471-.318l.653-.476 1.3-.952.322-.239.148-.099c.074.06.148.12.223.185.08.067.168.133.248.205.91.728 1.744 1.37 2.558 1.952a38.856 38.856 0 002.74 1.8c.417.244.915.535 1.46.806.175.093.364.186.546.272l.215.099c.074.033.141.066.215.1.182.085.37.171.566.244.161.073.33.132.491.192.101.04.209.072.31.119l.41.132c.135.046.283.08.425.113a12.73 12.73 0 001.743.31c.377.04.747.053 1.117.053.848 0 1.663-.099 2.437-.29 1.056-.265 2.611-.821 3.507-1.529l.006-.006.02-.04-.026-.027c-.027-.026-.027-.026-.297.1-.511.251-1.884.92-3.244 1.296-1.01.278-2.174.364-3.473.245a11.831 11.831 0 01-2.134-.41l-.41-.132-.155-.053c-.216-.08-.438-.16-.646-.245-.27-.106-.525-.225-.774-.33-.075-.034-.142-.067-.216-.1a13.45 13.45 0 01-.538-.265 30.29 30.29 0 01-1.454-.8A39.28 39.28 0 0125.77 9.88a51.645 51.645 0 01-2.565-1.945c-.08-.066-.168-.133-.248-.199l-.202-.158.753-.53c.135-.092.276-.185.411-.27.087-.06.182-.113.262-.173l.687-.45c.95-.582 1.885-1.15 2.867-1.654.35-.191.727-.37 1.084-.542.142-.066.276-.132.418-.199.14-.06.282-.125.424-.185.363-.165.74-.33 1.13-.476A23.408 23.408 0 0134.07 2.06c.364-.08.714-.145 1.064-.205a12.89 12.89 0 012.423-.159c1.218.027 2.37.305 3.318.794l.357.205c.088.053.168.106.25.166l.08.06c.027.02.054.039.08.052l.081.06.31.264.074.06.33.344c.04.046.074.1.114.145.04.053.081.1.115.146l.06.08c.02.026.04.046.054.072.384.576.404.582.424.589l.121.046-.033-.092zM17.7 10.812l-.364.206c-.242.132-.485.264-.74.383l-.754.37-.774.331-.202.08c-.068.026-.128.053-.195.066l-.398.152c-.134.046-.269.1-.397.152l-.41.126c-1.185.357-2.33.575-3.413.642l-.444.026h-.444c-.148 0-.296 0-.438-.007l-.66-.052-.222-.034-.43-.059a3.348 3.348 0 01-.25-.053c-.06-.013-.114-.026-.168-.033-.047-.013-.087-.02-.134-.033a3.693 3.693 0 01-.29-.073l-.41-.126c-.06-.02-.128-.04-.196-.066l-.201-.08a8.462 8.462 0 01-.667-.29l-.094-.046a4.668 4.668 0 01-.35-.199c-.027-.013-.054-.033-.08-.046-.095-.053-.183-.1-.257-.166l-.33-.225a2.507 2.507 0 01-.208-.165l-.101-.08-.155-.118-.141-.133c-.034-.033-.068-.06-.101-.092-.06-.06-.121-.113-.175-.179a2016.1 2016.1 0 00-.142-.159 4.06 4.06 0 01-.343-.417 5.105 5.105 0 01-.33-.482c-.027-.04-.054-.086-.08-.126l-.162-.318c-.013-.026-.027-.053-.04-.086a.638.638 0 01-.034-.072l-.067-.166a1.007 1.007 0 00-.054-.125 1.603 1.603 0 01-.081-.206l-.108-.344c-.033-.112-.054-.224-.074-.337l-.033-.172-.02-.179c-.061-.43-.054-.88.033-1.376l.034-.172.141-.509c.027-.06.047-.119.067-.179.061-.158.128-.324.21-.482.073-.166.174-.338.268-.497l.081-.139c.034-.052.067-.099.101-.152.034-.053.074-.099.108-.158.033-.053.06-.1.107-.146l.122-.152c.612-.76 1.467-1.43 2.47-1.938.256-.126.525-.239.794-.338a8.88 8.88 0 012.51-.516 11.57 11.57 0 013.508.291c1.043.238 2.1.615 3.237 1.138.276.126.525.245.754.37l.734.397.175.106c.404.245.821.496 1.211.761.902.582 1.697 1.224 2.572 1.932.531.483 1.104.972 1.777 1.528l-.108.093-.323.238c-.424.31-.862.628-1.313.952l-.653.477c-.107.072-.222.145-.336.225-.115.072-.229.152-.344.224-.383.265-.794.51-1.198.741l-.201.12c-.142.046-.263.118-.377.171z" fill="url(#bpaint2_linear_0_227)"/><path d="M45.096 6.122c0-.006 0-.033-.007-.066-.08-1.21-.518-3.446-2.591-4.869a6.129 6.129 0 00-.855-.45 8.27 8.27 0 00-.93-.337 8.816 8.816 0 00-1.998-.31c-.613-.027-1.266 0-2.013.078-.666.086-1.32.212-1.938.378a21.39 21.39 0 00-3.595 1.29c-2.019.92-4.065 2.13-6.246 3.704a46.746 46.746 0 00-2.201 1.687 68.95 68.95 0 01-1.743-1.568 36.848 36.848 0 00-2.733-2.17 33.887 33.887 0 00-1.488-.979 24.4 24.4 0 00-1.602-.88C13.911 1.015 12.753.592 11.602.327A11.915 11.915 0 009.65.03a10.121 10.121 0 00-2.006.046c-1.346.159-2.618.582-3.681 1.23a8.098 8.098 0 00-2.625 2.402C.69 4.673.288 5.686.146 6.724c-.134 1.052 0 2.11.404 3.156a7.592 7.592 0 001.932 2.798A8.64 8.64 0 005.8 14.563c.667.205 1.34.338 2.006.39.343.034.687.047 1.037.047.33 0 .673-.013 1.023-.046 1.252-.113 2.55-.417 3.87-.9a18.376 18.376 0 001.757-.754 18.709 18.709 0 001.629-.887 28.462 28.462 0 002.975-2.024c.505-.39.949-.754 1.36-1.111.154-.133.302-.258.45-.39.276-.239.566-.49.862-.728.074-.06.141-.12.215-.179.061-.053.122-.1.182-.152.034.026.067.053.094.08.04.04.088.072.128.105a64 64 0 002.733 2.17c.478.357 1.003.734 1.42 1.032.485.337.983.668 1.488.986.471.297.983.602 1.555.92.202.112.424.224.632.33.061.033.122.06.182.093.067.033.142.066.209.099s.141.066.209.1c.134.072.289.131.43.19.25.113.498.206.768.305l.114.046.451.146c.094.033.195.06.29.08.06.013.12.033.174.046.694.172 1.326.278 1.925.33 1.367.113 2.72-.04 3.911-.423 1.198-.383 2.296-1.019 3.17-1.852a7.764 7.764 0 001.104-1.297c.256-.397.478-.813.653-1.224l.034-.079-.088.013c-.047.007-.067.047-.161.232-1.992 3.85-5.769 4.485-8.582 4.34a9.871 9.871 0 01-1.865-.285c-.074-.02-.148-.04-.228-.06l-.223-.06-.444-.138c-.29-.1-.585-.205-.861-.324-.074-.033-.142-.06-.216-.093-.067-.033-.141-.06-.208-.092-.068-.027-.135-.06-.202-.093-.074-.033-.142-.066-.209-.093-.088-.046-.182-.092-.276-.139a8.222 8.222 0 01-.539-.277c-.47-.239-.969-.523-1.561-.887a40.53 40.53 0 01-2.928-1.978 58.649 58.649 0 01-2.955-2.335 59.746 59.746 0 012.174-1.7c2.181-1.588 4.106-2.759 6.058-3.665a21.16 21.16 0 013.44-1.264A12.905 12.905 0 0136.79.751a11.79 11.79 0 011.864-.086c2.262.026 4.005.926 5.183 2.679a7.523 7.523 0 011.137 2.791l.007.053.101-.006.014-.06zM22.29 7.558c-.054.04-.1.086-.155.125-.437.364-.875.735-1.326 1.118-.43.364-.888.722-1.332 1.066l-.007.006c-.458.338-.929.682-1.407.999-.162.113-.33.218-.485.318l-.242.158-.377.232-.262.159a18.517 18.517 0 01-1.69.893c-.646.304-1.157.516-1.656.694-1.218.437-2.416.708-3.554.8a11.09 11.09 0 01-1.817-.012 9.195 9.195 0 01-1.75-.345 7.767 7.767 0 01-2.928-1.66 6.684 6.684 0 01-1.75-2.494 5.67 5.67 0 01-.417-2.825c.1-.939.444-1.892.996-2.758A7.588 7.588 0 014.4 1.762C5.35 1.142 6.5.719 7.725.54c.458-.066.922-.1 1.387-.1a12.807 12.807 0 012.35.245 15.7 15.7 0 013.513 1.185c.572.264 1.11.562 1.608.833.606.35 1.084.655 1.508.946a31.881 31.881 0 012.746 2.124c.505.483 1.077.992 1.744 1.554-.108.08-.202.159-.29.232z" fill="url(#bpaint3_linear_0_227)"/><path d="M41.986 2.074a7.981 7.981 0 00-1.588-.768 9.111 9.111 0 00-1.791-.423c-1.151-.159-2.39-.1-3.688.165-1.098.225-2.208.596-3.406 1.138-.519.238-1.037.503-1.549.78-.511.285-.989.583-1.453.88-.91.59-1.811 1.25-2.686 1.972a49.87 49.87 0 01-1.959 1.62 44.917 44.917 0 00-2.053-1.666c-1.992-1.522-3.87-2.7-5.741-3.612A18.925 18.925 0 0012.74.89C11.474.532 10.243.374 9.07.407c-.316.006-.619.033-.928.079-.276.04-.6.093-.91.185a6.949 6.949 0 00-1.668.682c-.512.304-.95.661-1.306 1.051-.216.239-.37.43-.498.616-.06.079-.115.165-.169.251-.02.026-.033.053-.053.08l-.034.052c-.06.1-.114.186-.148.285-.222.423-.397.88-.532 1.396-.06.211-.108.45-.148.714-.047.232-.067.47-.087.701v.027c-.007.06-.007.119-.014.185 0 .06-.007.119-.013.185v.12c0 .079-.007.158 0 .237l.013.364.034.364c.06.503.161.973.316 1.442a6.712 6.712 0 001.656 2.607 7.608 7.608 0 002.962 1.766c1.124.37 2.389.516 3.668.423a10.69 10.69 0 001.838-.284 12.138 12.138 0 001.723-.562 19.979 19.979 0 001.595-.728l.384-.198c.127-.067.255-.14.383-.206l.747-.423a42.111 42.111 0 002.84-1.84A63.77 63.77 0 0023.84 7.65l.182.16c.074.059.141.125.215.184.209.172.411.358.606.536.195.179.404.364.613.536l.619.536c.121.106.256.212.384.31.087.067.175.14.262.206l.323.251.162.133 1.01.734c.053.046.114.08.181.119l.35.231.236.153c.155.105.316.211.484.304l.734.43.956.503c.074.04.141.066.202.086l.397.185c.135.06.27.126.41.178l.418.16c1.211.462 2.396.747 3.527.853.31.033.633.053.996.053.262 0 .545-.007.862-.027l.686-.08c.067-.006.128-.02.189-.032l.491-.1.222-.06.222-.059.209-.06c.047-.012.087-.026.128-.039.033-.013.06-.02.094-.033l.417-.152c.068-.027.142-.06.202-.086.068-.033.135-.06.202-.086.976-.423 1.622-1.197 2.174-1.965l-.08-.06c-.606.709-1.293 1.416-2.215 1.84-.034.02-.074.033-.108.053a5.256 5.256 0 01-.282.125l-.418.152c-.067.027-.134.053-.195.067l-.209.06c-.06.012-.12.032-.181.052-.081.027-.162.046-.25.066l-.437.086-.047.013c-.06.014-.114.027-.175.034l-.673.079c-.579.033-1.198.053-1.817-.02-1.111-.106-2.282-.384-3.48-.834l-.418-.158c-.134-.053-.269-.113-.404-.172l-.397-.179-.1-.04c-.034-.013-.068-.033-.102-.04l-.955-.489-.734-.43c-.202-.112-.384-.238-.572-.364l-.485-.317-.06-.04c-.04-.026-.074-.053-.122-.08l-1.01-.733-.16-.133L26.8 10l-.215-.172c-.149-.12-.283-.225-.418-.344l-.612-.536c-.23-.192-.451-.397-.667-.589a45.303 45.303 0 00-.552-.49c-.074-.059-.141-.125-.215-.185l-.168-.145a66.263 66.263 0 001.938-1.62c2.033-1.628 3.844-2.773 5.688-3.6 1.164-.516 2.262-.873 3.372-1.091 1.245-.252 2.497-.298 3.615-.132.578.079 1.157.218 1.723.43a8.084 8.084 0 011.521.747c.929.589 2.255 2.05 2.268 2.064l.081-.06c-.559-.939-1.232-1.614-2.174-2.202zM23.294 7.895l-.444.338c-.29.218-.586.45-.875.661-.404.298-.835.602-1.36.966a41.123 41.123 0 01-2.86 1.806l-.741.423c-.1.053-.195.106-.296.152-.155.08-.31.166-.471.239-.444.224-.936.443-1.582.707-.552.225-1.117.404-1.683.536-.64.146-1.225.232-1.784.265-1.245.08-2.47-.066-3.54-.43-1.09-.37-2.073-.96-2.834-1.7A6.327 6.327 0 013.236 9.35a8.366 8.366 0 01-.317-1.382l-.033-.35-.014-.365a1.33 1.33 0 010-.231v-.12c.007-.045.007-.098.007-.145 0-.066 0-.139.013-.218.088-1.058.33-1.958.74-2.752a5.475 5.475 0 012.1-2.236A6.35 6.35 0 017.309.896C7.55.83 7.82.77 8.183.724c.29-.046.592-.073.895-.08.115-.006.23-.006.343-.006 1.01 0 2.094.159 3.231.47 1.064.29 2.168.708 3.292 1.237 1.864.886 3.688 2.01 5.735 3.559.626.47 1.279.992 2.046 1.647-.135.113-.283.232-.431.344z" fill="url(#bpaint4_linear_0_227)"/></g><defs><linearGradient id="bpaint0_linear_0_227" x1="1.73" y1="7.5" x2="43.461" y2="7.5" gradientUnits="userSpaceOnUse"><stop stop-color="#AB8D60"/><stop offset=".067" stop-color="#C7AD7E"/><stop offset=".14" stop-color="#E1CB9B"/><stop offset=".258" stop-color="#EED9AB"/><stop offset=".36" stop-color="#E1CB9B"/><stop offset=".489" stop-color="#AB8D60"/><stop offset=".549" stop-color="#C7AD7E"/><stop offset=".613" stop-color="#E1CB9B"/><stop offset=".72" stop-color="#EED9AB"/><stop offset=".839" stop-color="#E1CB9B"/><stop offset="1" stop-color="#AB8D60"/></linearGradient><linearGradient id="bpaint1_linear_0_227" x1="1.73" y1="7.5" x2="43.461" y2="7.5" gradientUnits="userSpaceOnUse"><stop stop-color="#AB8D60"/><stop offset=".067" stop-color="#C7AD7E"/><stop offset=".14" stop-color="#E1CB9B"/><stop offset=".258" stop-color="#EED9AB"/><stop offset=".36" stop-color="#E1CB9B"/><stop offset=".489" stop-color="#AB8D60"/><stop offset=".549" stop-color="#C7AD7E"/><stop offset=".613" stop-color="#E1CB9B"/><stop offset=".72" stop-color="#EED9AB"/><stop offset=".839" stop-color="#E1CB9B"/><stop offset="1" stop-color="#AB8D60"/></linearGradient><linearGradient id="bpaint2_linear_0_227" x1="1.73" y1="7.5" x2="43.461" y2="7.5" gradientUnits="userSpaceOnUse"><stop stop-color="#AB8D60"/><stop offset=".067" stop-color="#C7AD7E"/><stop offset=".14" stop-color="#E1CB9B"/><stop offset=".258" stop-color="#EED9AB"/><stop offset=".36" stop-color="#E1CB9B"/><stop offset=".489" stop-color="#AB8D60"/><stop offset=".549" stop-color="#C7AD7E"/><stop offset=".613" stop-color="#E1CB9B"/><stop offset=".72" stop-color="#EED9AB"/><stop offset=".839" stop-color="#E1CB9B"/><stop offset="1" stop-color="#AB8D60"/></linearGradient><linearGradient id="bpaint3_linear_0_227" x1="1.73" y1="7.5" x2="43.461" y2="7.5" gradientUnits="userSpaceOnUse"><stop stop-color="#AB8D60"/><stop offset=".067" stop-color="#C7AD7E"/><stop offset=".14" stop-color="#E1CB9B"/><stop offset=".258" stop-color="#EED9AB"/><stop offset=".36" stop-color="#E1CB9B"/><stop offset=".489" stop-color="#AB8D60"/><stop offset=".549" stop-color="#C7AD7E"/><stop offset=".613" stop-color="#E1CB9B"/><stop offset=".72" stop-color="#EED9AB"/><stop offset=".839" stop-color="#E1CB9B"/><stop offset="1" stop-color="#AB8D60"/></linearGradient><linearGradient id="bpaint4_linear_0_227" x1="4.071" y1="7.446" x2="42.649" y2="7.446" gradientUnits="userSpaceOnUse"><stop stop-color="#AB8D60"/><stop offset=".067" stop-color="#C7AD7E"/><stop offset=".14" stop-color="#E1CB9B"/><stop offset=".258" stop-color="#EED9AB"/><stop offset=".36" stop-color="#E1CB9B"/><stop offset=".489" stop-color="#AB8D60"/><stop offset=".549" stop-color="#C7AD7E"/><stop offset=".613" stop-color="#E1CB9B"/><stop offset=".72" stop-color="#EED9AB"/><stop offset=".839" stop-color="#E1CB9B"/><stop offset="1" stop-color="#AB8D60"/></linearGradient></defs></svg><svg fill="none" viewBox="0 0 162 24" id="logo-title" xmlns="http://www.w3.org/2000/svg"><path d="M4.154 20.978l-.779 2.072H.965l4.18-10.868h2.502l4.12 10.868H9.34l-.748-2.072h-4.44zm.64-1.965h3.143l-1.556-4.467-1.587 4.467z" fill="url(#cpaint0_linear_0_1698)"/><path d="M17.424 14.162c-.02.676-.03 1.361-.03 2.057 0 .686-.016 1.366-.046 2.042l-.03.814c-.01.286-.036.578-.077.875-.03.286-.086.573-.168.86a3.716 3.716 0 01-.305.813c-.152.276-.34.506-.564.69a2.72 2.72 0 01-.718.446 3.5 3.5 0 01-.823.245 6.531 6.531 0 01-.9.062h-.321V21.1h.198c.194 0 .367-.036.52-.107a1.38 1.38 0 00.396-.277c.112-.112.203-.235.274-.368.072-.144.123-.282.153-.415.061-.235.107-.501.137-.798.03-.307.051-.62.061-.936l.03-.952.031-.83c.02-.675.026-1.35.016-2.026 0-.685.01-1.422.03-2.21h7.644V23.05H20.72v-8.888h-3.296z" fill="url(#cpaint1_linear_0_1698)"/><path d="M28.807 19.197l5.279-7.015h1.785V23.05h-2.213v-6.954L28.38 23.05h-1.785V12.182h2.213v7.015z" fill="url(#cpaint2_linear_0_1698)"/><path d="M41.742 19.197l5.279-7.015h1.785V23.05h-2.213v-6.954l-5.279 6.954H39.53V12.182h2.213v7.015z" fill="url(#cpaint3_linear_0_1698)"/><path d="M57.95 23.05V12.182h7.826v1.98h-5.614v2.164h2.471c.61 0 1.15.057 1.618.17.478.102.885.286 1.22.552.387.317.656.696.809 1.136.162.43.244.89.244 1.382-.01.522-.102.998-.275 1.428a2.96 2.96 0 01-.823 1.135 3.427 3.427 0 01-.748.476c-.265.123-.544.22-.84.292-.284.061-.58.102-.884.123-.295.02-.585.03-.87.03h-4.135zm2.212-1.964h1.861c.285 0 .564-.01.84-.031.274-.03.523-.097.747-.2.224-.102.402-.25.534-.445.132-.205.198-.481.198-.829 0-.307-.06-.547-.183-.721a1.084 1.084 0 00-.473-.384 1.876 1.876 0 00-.656-.17 8.973 8.973 0 00-.748-.03l-2.12.016v2.794z" fill="url(#cpaint4_linear_0_1698)"/><path d="M75.886 12.182h2.487l-2.822 6.662c-.112.266-.234.548-.367.845-.122.296-.26.593-.412.89-.152.297-.32.583-.503.86a3.96 3.96 0 01-.58.706 3.418 3.418 0 01-1.19.721c-.427.143-.936.205-1.525.184h-.718v-1.964h.351c.173 0 .351-.006.534-.016a1.844 1.844 0 001.084-.522c.183-.163.35-.399.503-.706l-4.135-7.66h2.564l2.7 5.311 2.03-5.311z" fill="url(#cpaint5_linear_0_1698)"/><path d="M83.681 14.162c-.02.676-.03 1.361-.03 2.057 0 .686-.015 1.366-.046 2.042l-.03.814c-.01.286-.036.578-.076.875-.031.286-.087.573-.168.86a3.72 3.72 0 01-.306.813c-.152.276-.34.506-.564.69a2.717 2.717 0 01-.717.446 3.498 3.498 0 01-.824.245 6.53 6.53 0 01-.9.062h-.32V21.1h.198c.193 0 .366-.036.519-.107a1.38 1.38 0 00.396-.277c.112-.112.204-.235.275-.368.071-.144.122-.282.152-.415.061-.235.107-.501.138-.798.03-.307.05-.62.06-.936a457.286 457.286 0 01.062-1.781c.02-.676.025-1.351.015-2.027 0-.685.01-1.422.03-2.21h7.644V23.05h-2.212v-8.888H83.68z" fill="url(#cpaint6_linear_0_1698)"/><path d="M94.896 20.978l-.778 2.072h-2.411l4.18-10.868h2.502l4.12 10.868h-2.426l-.748-2.072h-4.44zm.64-1.965h3.143l-1.556-4.467-1.587 4.467z" fill="url(#cpaint7_linear_0_1698)"/><path d="M103.213 14.162v-1.98h8.987v1.98h-3.387v8.888H106.6v-8.888h-3.387z" fill="url(#cpaint8_linear_0_1698)"/><path d="M119.266 12.043c.823 0 1.566.133 2.227.4a4.601 4.601 0 011.678 1.135c.458.481.809 1.06 1.053 1.735.244.675.366 1.422.366 2.241 0 .798-.122 1.54-.366 2.226a5.183 5.183 0 01-1.053 1.78 4.812 4.812 0 01-1.693 1.183c-.661.276-1.414.41-2.258.399-.844 0-1.597-.138-2.258-.415a4.989 4.989 0 01-1.663-1.166 5.17 5.17 0 01-1.038-1.75 6.711 6.711 0 01-.351-2.21c0-.82.122-1.567.367-2.242a5.206 5.206 0 011.068-1.766 4.753 4.753 0 011.693-1.136c.661-.276 1.404-.414 2.228-.414zm-3.082 5.527c0 .47.061.92.183 1.35.132.42.32.793.564 1.121.255.327.575.594.962.798.386.195.839.297 1.357.307.499.01.941-.076 1.328-.26.386-.195.707-.456.961-.784.254-.337.447-.721.58-1.15a4.73 4.73 0 000-2.703 3.304 3.304 0 00-.565-1.136 2.57 2.57 0 00-.946-.798c-.386-.195-.839-.292-1.358-.292-.508 0-.956.097-1.342.292a2.773 2.773 0 00-.961.783 3.504 3.504 0 00-.58 1.136c-.122.42-.183.865-.183 1.335z" fill="url(#cpaint9_linear_0_1698)"/><path d="M127.648 23.05V12.182h4.79c.499 0 .957.05 1.373.153.428.102.799.287 1.114.553.255.204.468.476.641.813.183.328.275.727.275 1.198.01.501-.082.947-.275 1.335-.183.39-.498.717-.946.983.315.092.585.23.809.415.224.184.402.399.534.644.142.246.244.512.305.799.061.286.086.583.076.89-.02.491-.152.947-.397 1.366-.234.41-.544.742-.93.998a3.533 3.533 0 01-1.511.599c-.549.081-1.093.122-1.632.122h-4.226zm4.165-6.462c.224 0 .447-.01.671-.031.224-.03.432-.102.626-.215.162-.102.3-.24.412-.414.111-.175.173-.38.183-.615.01-.245-.031-.445-.122-.598a1.022 1.022 0 00-.336-.353 1.145 1.145 0 00-.565-.17 6.884 6.884 0 00-.656-.03h-2.166v2.426h1.953zm-1.953 4.498h2.014c.295 0 .605-.016.93-.046.336-.041.621-.149.855-.323.142-.112.259-.25.351-.414a1.38 1.38 0 00.137-.645c0-.236-.051-.435-.153-.599a1.002 1.002 0 00-.381-.368 1.287 1.287 0 00-.595-.2 7.064 7.064 0 00-.671-.03l-2.487.015v2.61z" fill="url(#cpaint10_linear_0_1698)"/><path d="M144.196 12.043c.824 0 1.567.133 2.228.4a4.61 4.61 0 011.678 1.135c.458.481.809 1.06 1.053 1.735.244.675.366 1.422.366 2.241 0 .798-.122 1.54-.366 2.226a5.183 5.183 0 01-1.053 1.78 4.816 4.816 0 01-1.694 1.183c-.661.276-1.413.41-2.258.399-.844 0-1.596-.138-2.258-.415a5 5 0 01-1.663-1.166 5.183 5.183 0 01-1.037-1.75 6.711 6.711 0 01-.351-2.21c0-.82.122-1.567.366-2.242a5.206 5.206 0 011.068-1.766 4.766 4.766 0 011.694-1.136c.661-.276 1.403-.414 2.227-.414zm-3.082 5.527c0 .47.061.92.183 1.35.133.42.321.793.565 1.121.254.327.574.594.961.798.387.195.839.297 1.358.307.498.01.941-.076 1.327-.26.387-.195.707-.456.962-.784.254-.337.447-.721.579-1.15.132-.441.199-.897.199-1.367 0-.46-.067-.906-.199-1.336a3.302 3.302 0 00-.564-1.136 2.578 2.578 0 00-.946-.798c-.387-.195-.839-.292-1.358-.292-.509 0-.956.097-1.343.292a2.782 2.782 0 00-.961.783 3.543 3.543 0 00-.58 1.136c-.122.42-.183.865-.183 1.335z" fill="url(#cpaint11_linear_0_1698)"/><path d="M157.37 11.46c-.824 0-1.505-.204-2.045-.613-.539-.41-.854-1.029-.946-1.858h1.862c.142.594.524.89 1.144.89.295 0 .539-.076.732-.23.204-.153.331-.373.382-.66h1.892c-.112.83-.443 1.448-.992 1.858-.539.41-1.215.614-2.029.614zm-2.563 7.738l5.279-7.016h1.785v10.87h-2.213v-6.955l-5.279 6.954h-1.785V12.182h2.213v7.016z" fill="url(#cpaint12_linear_0_1698)"/><path d="M.965 6.055V1.392h.573v3.766l2.494-3.766h.606v4.663h-.573V2.322L1.564 6.055h-.6z" fill="url(#cpaint13_linear_0_1698)"/><path d="M7.083 3.502h2.495v-2.11h.573v4.663h-.573V4.03H7.083v2.025h-.572V1.392h.572v2.11z" fill="url(#cpaint14_linear_0_1698)"/><path d="M13.894 1.861c-.277 0-.514.05-.711.152a1.398 1.398 0 00-.48.408 1.75 1.75 0 00-.27.594 2.75 2.75 0 00-.086.693c0 .26.03.503.092.732.061.228.156.428.283.6.127.167.29.301.487.402.198.097.432.145.704.145.33 0 .606-.068.83-.204a.932.932 0 00.434-.548h.626a1.613 1.613 0 01-.639.93c-.325.23-.746.343-1.264.343-.36 0-.673-.06-.941-.178a1.858 1.858 0 01-.671-.494 2.12 2.12 0 01-.396-.752 3.296 3.296 0 01-.131-.957c0-.342.044-.66.132-.95.087-.29.221-.54.401-.751.18-.216.404-.383.671-.501a2.25 2.25 0 01.948-.185c.255 0 .483.03.685.092.206.062.384.15.533.264.154.11.279.244.375.402.097.154.167.326.211.515h-.58a.937.937 0 00-.427-.548c-.215-.136-.487-.204-.816-.204z" fill="url(#cpaint15_linear_0_1698)"/><path d="M18.936 6.055h-.573V1.913H16.87v-.521h3.561v.52h-1.494v4.143z" fill="url(#cpaint16_linear_0_1698)"/><path d="M21.823 6.055V1.392h.572v3.766l2.495-3.766h.606v4.663h-.573V2.322l-2.501 3.733h-.6z" fill="url(#cpaint17_linear_0_1698)"/><path d="M28.954 6.055h-.573V1.913h-1.494v-.521h3.56v.52h-1.493v4.143z" fill="url(#cpaint18_linear_0_1698)"/><path d="M32.14 5.513c.136 0 .26-.007.369-.02.11-.018.21-.049.303-.093a.978.978 0 00.256-.197 1.4 1.4 0 00.237-.337L31.43 1.384h.678l1.528 2.889 1.171-2.89h.619c-.14.318-.28.643-.421.977-.136.33-.274.662-.415.996-.105.25-.215.506-.33.765-.109.255-.225.503-.348.745a4.395 4.395 0 01-.27.469 1.802 1.802 0 01-.296.362c-.163.145-.34.242-.533.29a3.047 3.047 0 01-.672.066v-.54z" fill="url(#cpaint19_linear_0_1698)"/><path d="M38.367 6.055h-.573V1.913H36.3v-.521h3.561v.52h-1.494v4.143z" fill="url(#cpaint20_linear_0_1698)"/><path d="M48.125 1.861c-.276 0-.513.05-.71.152a1.396 1.396 0 00-.481.408c-.123.172-.213.37-.27.594a2.75 2.75 0 00-.086.693c0 .26.031.503.092.732.062.228.156.428.283.6.128.167.29.301.487.402.198.097.433.145.705.145.329 0 .605-.068.83-.204a.933.933 0 00.434-.548h.625a1.613 1.613 0 01-.638.93c-.325.23-.746.343-1.264.343-.36 0-.674-.06-.942-.178a1.859 1.859 0 01-.671-.494 2.12 2.12 0 01-.395-.752 3.296 3.296 0 01-.132-.957c0-.342.044-.66.132-.95.088-.29.221-.54.401-.751.18-.216.404-.383.672-.501a2.25 2.25 0 01.948-.185c.254 0 .482.03.684.092.207.062.384.15.534.264.153.11.278.244.375.402.096.154.167.326.21.515h-.579a.937.937 0 00-.428-.548c-.215-.136-.487-.204-.816-.204z" fill="url(#cpaint21_linear_0_1698)"/><path d="M53.615 6.108c-.364 0-.683-.06-.955-.178-.272-.123-.5-.29-.684-.501a2.091 2.091 0 01-.415-.752 3.126 3.126 0 01-.138-.95c0-.342.046-.66.138-.95.092-.294.23-.547.415-.758.184-.21.412-.376.684-.494.273-.124.59-.185.955-.185.36 0 .676.061.948.185.272.118.5.283.684.494.185.211.323.464.415.759.092.29.138.607.138.95 0 .342-.046.659-.138.95a1.976 1.976 0 01-1.1 1.253 2.355 2.355 0 01-.947.177zm0-4.247c-.276 0-.516.05-.718.152-.202.096-.368.23-.5.402-.132.171-.23.372-.296.6a2.522 2.522 0 00-.099.712c0 .251.03.488.092.713.066.224.165.422.297.593.131.172.298.308.5.41.206.096.448.144.724.144.276 0 .516-.048.717-.145.202-.1.367-.235.494-.402.132-.172.228-.37.29-.594.066-.224.099-.463.099-.719 0-.255-.033-.494-.1-.718a1.63 1.63 0 00-.289-.594 1.361 1.361 0 00-.5-.402 1.57 1.57 0 00-.711-.152z" fill="url(#cpaint22_linear_0_1698)"/><path d="M57.404 1.392h1.633c.224 0 .425.013.605.04.185.026.35.087.494.184.127.084.235.202.323.356.087.154.131.35.131.587s-.055.449-.164.633a.94.94 0 01-.494.41c.298.052.522.18.671.382.15.198.224.455.224.771-.013.29-.074.517-.184.68-.11.162-.25.29-.421.382a1.834 1.834 0 01-.58.191c-.21.031-.423.047-.638.047h-1.6V1.392zm.573.52v1.524h.895c.123 0 .25-.009.382-.026.132-.018.25-.055.355-.112a.788.788 0 00.297-.25c.079-.11.12-.26.125-.45a.69.69 0 00-.08-.355.528.528 0 00-.216-.212.881.881 0 00-.316-.092 2.575 2.575 0 00-.376-.026h-1.066zm1.007 3.622c.14 0 .281-.007.421-.02.145-.013.281-.046.409-.1a.768.768 0 00.316-.243.743.743 0 00.118-.442.74.74 0 00-.092-.39.616.616 0 00-.237-.237.977.977 0 00-.336-.118 2.27 2.27 0 00-.388-.033h-1.218v1.583h1.007z" fill="url(#cpaint23_linear_0_1698)"/><path d="M62.45 6.055V1.392h1.612c.514 0 .915.127 1.205.382.29.25.434.64.434 1.168 0 .268-.048.503-.145.705-.092.203-.221.37-.388.502a1.57 1.57 0 01-.527.27 2.33 2.33 0 01-.698.099h-.921v1.537h-.573zm.572-2.058h.895c.167 0 .33-.02.487-.06a.938.938 0 00.626-.527 1.22 1.22 0 00.085-.495c0-.668-.36-1.002-1.08-1.002h-1.013v2.084z" fill="url(#cpaint24_linear_0_1698)"/><path d="M67.287 6.055V1.392h3.127v.52H67.86v1.57h2.297v.528H67.86v1.524h2.554v.52h-3.127z" fill="url(#cpaint25_linear_0_1698)"/><path d="M72.03 6.055V1.392h.855l1.422 2.565 1.402-2.565h.836v4.663h-.573V1.972l-1.547 2.87h-.263l-1.56-2.87v4.083h-.573z" fill="url(#cpaint26_linear_0_1698)"/><path d="M78.416 6.055V1.392h3.127v.52h-2.554v1.57h2.297v.528h-2.297v1.524h2.553v.52h-3.126z" fill="url(#cpaint27_linear_0_1698)"/><path d="M83.73 3.502h2.495v-2.11h.573v4.663h-.573V4.03h-2.494v2.025h-.573V1.392h.573v2.11z" fill="url(#cpaint28_linear_0_1698)"/><path d="M89.238 3.502h2.495v-2.11h.572v4.663h-.573V4.03h-2.494v2.025h-.573V1.392h.573v2.11z" fill="url(#cpaint29_linear_0_1698)"/><path d="M96.107 6.108c-.364 0-.682-.06-.954-.178a1.976 1.976 0 01-1.1-1.253 3.126 3.126 0 01-.138-.95c0-.342.046-.66.138-.95.093-.294.23-.547.415-.758.184-.21.413-.376.685-.494.272-.124.59-.185.954-.185.36 0 .676.061.948.185.272.118.5.283.685.494.184.211.322.464.415.759.092.29.138.607.138.95 0 .342-.046.659-.138.95a1.977 1.977 0 01-1.1 1.253 2.355 2.355 0 01-.948.177zm0-4.247c-.276 0-.515.05-.717.152-.202.096-.369.23-.5.402-.132.171-.23.372-.297.6a2.515 2.515 0 00-.099.712c0 .251.031.488.093.713.066.224.164.422.296.593.132.172.298.308.5.41.207.096.448.144.724.144.277 0 .516-.048.718-.145.202-.1.366-.235.493-.402.132-.172.229-.37.29-.594.066-.224.099-.463.099-.719 0-.255-.033-.494-.099-.718a1.627 1.627 0 00-.29-.594 1.361 1.361 0 00-.5-.402 1.568 1.568 0 00-.71-.152z" fill="url(#cpaint30_linear_0_1698)"/><path d="M101.741.521c.197 0 .355-.044.474-.132a.503.503 0 00.191-.389h.546c-.009.317-.118.563-.329.739-.206.171-.5.257-.882.257s-.678-.086-.889-.257c-.206-.176-.314-.422-.322-.739h.546a.5.5 0 00.191.39c.118.087.276.131.474.131zm-1.837 5.533V1.392h.573v3.766l2.495-3.766h.605v4.662h-.572V2.322l-2.502 3.732h-.599z" fill="url(#cpaint31_linear_0_1698)"/><path d="M114.106 6.055h-.573V1.913h-2.514v4.142h-.573V1.392h3.66v4.663z" fill="url(#cpaint32_linear_0_1698)"/><path d="M117.854 1.861c-.276 0-.513.05-.711.152a1.395 1.395 0 00-.48.408c-.123.172-.213.37-.27.594a2.75 2.75 0 00-.086.693c0 .26.031.503.093.732.061.228.155.428.283.6.127.167.289.301.487.402.197.097.432.145.704.145.329 0 .606-.068.829-.204a.933.933 0 00.435-.548h.625a1.616 1.616 0 01-.638.93c-.325.23-.746.343-1.264.343-.36 0-.674-.06-.941-.178a1.858 1.858 0 01-.672-.494 2.133 2.133 0 01-.395-.752 3.285 3.285 0 01-.132-.957c0-.342.044-.66.132-.95.088-.29.222-.54.402-.751.18-.216.403-.383.671-.501.268-.124.584-.185.948-.185.255 0 .483.03.685.092.206.062.384.15.533.264.153.11.279.244.375.402.097.154.167.326.211.515h-.58a.934.934 0 00-.427-.548c-.215-.136-.488-.204-.817-.204z" fill="url(#cpaint33_linear_0_1698)"/><path d="M121.376 6.055V1.392h.573v3.766l2.495-3.766h.606v4.663h-.573V2.322l-2.501 3.733h-.6z" fill="url(#cpaint34_linear_0_1698)"/><path d="M129.416 1.392h.691l-1.448 2.315 1.501 2.348h-.691l-1.172-1.867-1.185 1.867h-.671l1.494-2.329-1.448-2.334h.697l1.12 1.86 1.112-1.86z" fill="url(#cpaint35_linear_0_1698)"/><path d="M133.356 6.108c-.365 0-.683-.06-.955-.178-.272-.123-.5-.29-.685-.501a2.09 2.09 0 01-.414-.752 3.129 3.129 0 01-.138-.95c0-.342.046-.66.138-.95.092-.294.23-.547.414-.758.185-.21.413-.376.685-.494.272-.124.59-.185.955-.185.359 0 .675.061.947.185.272.118.501.283.685.494.184.211.323.464.415.759.092.29.138.607.138.95 0 .342-.046.659-.138.95a1.977 1.977 0 01-1.1 1.253 2.353 2.353 0 01-.947.177zm0-4.247c-.277 0-.516.05-.718.152-.202.096-.369.23-.5.402a1.765 1.765 0 00-.296.6 2.511 2.511 0 00-.099.712c0 .251.03.488.092.713.066.224.164.422.296.593.132.172.299.308.5.41.207.096.448.144.725.144.276 0 .515-.048.717-.145.202-.1.367-.235.494-.402.131-.172.228-.37.289-.594.066-.224.099-.463.099-.719 0-.255-.033-.494-.099-.718a1.633 1.633 0 00-.289-.594 1.368 1.368 0 00-.501-.402 1.563 1.563 0 00-.71-.152z" fill="url(#cpaint36_linear_0_1698)"/><path d="M139.899 6.055V1.913h-1.955l-.026.725-.014.726c0 .132-.004.29-.013.474-.004.18-.011.366-.019.555-.009.189-.025.369-.046.54a2.006 2.006 0 01-.093.422 1.057 1.057 0 01-.381.535c-.18.132-.439.202-.777.21v-.566a.58.58 0 00.408-.152.743.743 0 00.224-.39c.048-.158.077-.353.085-.586.013-.238.024-.462.033-.673l.027-1.167c.013-.396.019-.787.019-1.174h3.101v4.663h-.573z" fill="url(#cpaint37_linear_0_1698)"/><path d="M144.279 6.108c-.365 0-.683-.06-.955-.178a1.973 1.973 0 01-1.099-1.253 3.129 3.129 0 01-.138-.95c0-.342.046-.66.138-.95.092-.294.23-.547.415-.758.184-.21.412-.376.684-.494.272-.124.59-.185.955-.185.359 0 .675.061.948.185.272.118.5.283.684.494.184.211.323.464.415.759.092.29.138.607.138.95 0 .342-.046.659-.138.95a1.973 1.973 0 01-1.099 1.253 2.362 2.362 0 01-.948.177zm0-4.247c-.277 0-.516.05-.718.152-.202.096-.368.23-.5.402a1.765 1.765 0 00-.296.6 2.702 2.702 0 00-.007 1.425c.066.224.165.422.296.593.132.172.299.308.501.41.206.096.447.144.724.144.276 0 .515-.048.717-.145.202-.1.367-.235.494-.402.132-.172.228-.37.29-.594a2.57 2.57 0 00.098-.719 2.57 2.57 0 00-.098-.718 1.634 1.634 0 00-.29-.594 1.368 1.368 0 00-.501-.402 1.563 1.563 0 00-.71-.152z" fill="url(#cpaint38_linear_0_1698)"/><path d="M148.075 6.055V1.392h2.996v.52h-2.423v4.143h-.573z" fill="url(#cpaint39_linear_0_1698)"/><path d="M152.56 6.055V1.392h.573v3.766l2.495-3.766h.606v4.663h-.573V2.322l-2.502 3.733h-.599z" fill="url(#cpaint40_linear_0_1698)"/><path d="M158.105 6.055V1.392h.573v3.766l2.494-3.766h.606v4.663h-.573V2.322l-2.501 3.733h-.599z" fill="url(#cpaint41_linear_0_1698)"/><defs><linearGradient id="cpaint0_linear_0_1698" x1="6.81" y1="16.066" x2="156.026" y2="16.066" gradientUnits="userSpaceOnUse"><stop stop-color="#AB8D60"/><stop offset=".067" stop-color="#C7AD7E"/><stop offset=".14" stop-color="#E1CB9B"/><stop offset=".258" stop-color="#EED9AB"/><stop offset=".36" stop-color="#E1CB9B"/><stop offset=".489" stop-color="#AB8D60"/><stop offset=".549" stop-color="#C7AD7E"/><stop offset=".613" stop-color="#E1CB9B"/><stop offset=".72" stop-color="#EED9AB"/><stop offset=".839" stop-color="#E1CB9B"/><stop offset="1" stop-color="#AB8D60"/></linearGradient><linearGradient id="cpaint1_linear_0_1698" x1="6.81" y1="16.066" x2="156.027" y2="16.066" gradientUnits="userSpaceOnUse"><stop stop-color="#AB8D60"/><stop offset=".067" stop-color="#C7AD7E"/><stop offset=".14" stop-color="#E1CB9B"/><stop offset=".258" stop-color="#EED9AB"/><stop offset=".36" stop-color="#E1CB9B"/><stop offset=".489" stop-color="#AB8D60"/><stop offset=".549" stop-color="#C7AD7E"/><stop offset=".613" stop-color="#E1CB9B"/><stop offset=".72" stop-color="#EED9AB"/><stop offset=".839" stop-color="#E1CB9B"/><stop offset="1" stop-color="#AB8D60"/></linearGradient><linearGradient id="cpaint2_linear_0_1698" x1="6.81" y1="16.066" x2="156.027" y2="16.066" gradientUnits="userSpaceOnUse"><stop stop-color="#AB8D60"/><stop offset=".067" stop-color="#C7AD7E"/><stop offset=".14" stop-color="#E1CB9B"/><stop offset=".258" stop-color="#EED9AB"/><stop offset=".36" stop-color="#E1CB9B"/><stop offset=".489" stop-color="#AB8D60"/><stop offset=".549" stop-color="#C7AD7E"/><stop offset=".613" stop-color="#E1CB9B"/><stop offset=".72" stop-color="#EED9AB"/><stop offset=".839" stop-color="#E1CB9B"/><stop offset="1" stop-color="#AB8D60"/></linearGradient><linearGradient id="cpaint3_linear_0_1698" x1="6.81" y1="16.066" x2="156.027" y2="16.066" gradientUnits="userSpaceOnUse"><stop stop-color="#AB8D60"/><stop offset=".067" stop-color="#C7AD7E"/><stop offset=".14" stop-color="#E1CB9B"/><stop offset=".258" stop-color="#EED9AB"/><stop offset=".36" stop-color="#E1CB9B"/><stop offset=".489" stop-color="#AB8D60"/><stop offset=".549" stop-color="#C7AD7E"/><stop offset=".613" stop-color="#E1CB9B"/><stop offset=".72" stop-color="#EED9AB"/><stop offset=".839" stop-color="#E1CB9B"/><stop offset="1" stop-color="#AB8D60"/></linearGradient><linearGradient id="cpaint4_linear_0_1698" x1="6.81" y1="16.066" x2="156.026" y2="16.066" gradientUnits="userSpaceOnUse"><stop stop-color="#AB8D60"/><stop offset=".067" stop-color="#C7AD7E"/><stop offset=".14" stop-color="#E1CB9B"/><stop offset=".258" stop-color="#EED9AB"/><stop offset=".36" stop-color="#E1CB9B"/><stop offset=".489" stop-color="#AB8D60"/><stop offset=".549" stop-color="#C7AD7E"/><stop offset=".613" stop-color="#E1CB9B"/><stop offset=".72" stop-color="#EED9AB"/><stop offset=".839" stop-color="#E1CB9B"/><stop offset="1" stop-color="#AB8D60"/></linearGradient><linearGradient id="cpaint5_linear_0_1698" x1="6.809" y1="16.066" x2="156.025" y2="16.066" gradientUnits="userSpaceOnUse"><stop stop-color="#AB8D60"/><stop offset=".067" stop-color="#C7AD7E"/><stop offset=".14" stop-color="#E1CB9B"/><stop offset=".258" stop-color="#EED9AB"/><stop offset=".36" stop-color="#E1CB9B"/><stop offset=".489" stop-color="#AB8D60"/><stop offset=".549" stop-color="#C7AD7E"/><stop offset=".613" stop-color="#E1CB9B"/><stop offset=".72" stop-color="#EED9AB"/><stop offset=".839" stop-color="#E1CB9B"/><stop offset="1" stop-color="#AB8D60"/></linearGradient><linearGradient id="cpaint6_linear_0_1698" x1="6.81" y1="16.066" x2="156.027" y2="16.066" gradientUnits="userSpaceOnUse"><stop stop-color="#AB8D60"/><stop offset=".067" stop-color="#C7AD7E"/><stop offset=".14" stop-color="#E1CB9B"/><stop offset=".258" stop-color="#EED9AB"/><stop offset=".36" stop-color="#E1CB9B"/><stop offset=".489" stop-color="#AB8D60"/><stop offset=".549" stop-color="#C7AD7E"/><stop offset=".613" stop-color="#E1CB9B"/><stop offset=".72" stop-color="#EED9AB"/><stop offset=".839" stop-color="#E1CB9B"/><stop offset="1" stop-color="#AB8D60"/></linearGradient><linearGradient id="cpaint7_linear_0_1698" x1="6.81" y1="16.066" x2="156.026" y2="16.066" gradientUnits="userSpaceOnUse"><stop stop-color="#AB8D60"/><stop offset=".067" stop-color="#C7AD7E"/><stop offset=".14" stop-color="#E1CB9B"/><stop offset=".258" stop-color="#EED9AB"/><stop offset=".36" stop-color="#E1CB9B"/><stop offset=".489" stop-color="#AB8D60"/><stop offset=".549" stop-color="#C7AD7E"/><stop offset=".613" stop-color="#E1CB9B"/><stop offset=".72" stop-color="#EED9AB"/><stop offset=".839" stop-color="#E1CB9B"/><stop offset="1" stop-color="#AB8D60"/></linearGradient><linearGradient id="cpaint8_linear_0_1698" x1="6.809" y1="16.066" x2="156.026" y2="16.066" gradientUnits="userSpaceOnUse"><stop stop-color="#AB8D60"/><stop offset=".067" stop-color="#C7AD7E"/><stop offset=".14" stop-color="#E1CB9B"/><stop offset=".258" stop-color="#EED9AB"/><stop offset=".36" stop-color="#E1CB9B"/><stop offset=".489" stop-color="#AB8D60"/><stop offset=".549" stop-color="#C7AD7E"/><stop offset=".613" stop-color="#E1CB9B"/><stop offset=".72" stop-color="#EED9AB"/><stop offset=".839" stop-color="#E1CB9B"/><stop offset="1" stop-color="#AB8D60"/></linearGradient><linearGradient id="cpaint9_linear_0_1698" x1="6.81" y1="16.065" x2="156.027" y2="16.065" gradientUnits="userSpaceOnUse"><stop stop-color="#AB8D60"/><stop offset=".067" stop-color="#C7AD7E"/><stop offset=".14" stop-color="#E1CB9B"/><stop offset=".258" stop-color="#EED9AB"/><stop offset=".36" stop-color="#E1CB9B"/><stop offset=".489" stop-color="#AB8D60"/><stop offset=".549" stop-color="#C7AD7E"/><stop offset=".613" stop-color="#E1CB9B"/><stop offset=".72" stop-color="#EED9AB"/><stop offset=".839" stop-color="#E1CB9B"/><stop offset="1" stop-color="#AB8D60"/></linearGradient><linearGradient id="cpaint10_linear_0_1698" x1="6.809" y1="16.066" x2="156.026" y2="16.066" gradientUnits="userSpaceOnUse"><stop stop-color="#AB8D60"/><stop offset=".067" stop-color="#C7AD7E"/><stop offset=".14" stop-color="#E1CB9B"/><stop offset=".258" stop-color="#EED9AB"/><stop offset=".36" stop-color="#E1CB9B"/><stop offset=".489" stop-color="#AB8D60"/><stop offset=".549" stop-color="#C7AD7E"/><stop offset=".613" stop-color="#E1CB9B"/><stop offset=".72" stop-color="#EED9AB"/><stop offset=".839" stop-color="#E1CB9B"/><stop offset="1" stop-color="#AB8D60"/></linearGradient><linearGradient id="cpaint11_linear_0_1698" x1="6.809" y1="16.065" x2="156.026" y2="16.065" gradientUnits="userSpaceOnUse"><stop stop-color="#AB8D60"/><stop offset=".067" stop-color="#C7AD7E"/><stop offset=".14" stop-color="#E1CB9B"/><stop offset=".258" stop-color="#EED9AB"/><stop offset=".36" stop-color="#E1CB9B"/><stop offset=".489" stop-color="#AB8D60"/><stop offset=".549" stop-color="#C7AD7E"/><stop offset=".613" stop-color="#E1CB9B"/><stop offset=".72" stop-color="#EED9AB"/><stop offset=".839" stop-color="#E1CB9B"/><stop offset="1" stop-color="#AB8D60"/></linearGradient><linearGradient id="cpaint12_linear_0_1698" x1="6.809" y1="16.067" x2="156.026" y2="16.067" gradientUnits="userSpaceOnUse"><stop stop-color="#AB8D60"/><stop offset=".067" stop-color="#C7AD7E"/><stop offset=".14" stop-color="#E1CB9B"/><stop offset=".258" stop-color="#EED9AB"/><stop offset=".36" stop-color="#E1CB9B"/><stop offset=".489" stop-color="#AB8D60"/><stop offset=".549" stop-color="#C7AD7E"/><stop offset=".613" stop-color="#E1CB9B"/><stop offset=".72" stop-color="#EED9AB"/><stop offset=".839" stop-color="#E1CB9B"/><stop offset="1" stop-color="#AB8D60"/></linearGradient><linearGradient id="cpaint13_linear_0_1698" x1="6.806" y1="3.054" x2="155.937" y2="3.054" gradientUnits="userSpaceOnUse"><stop stop-color="#AB8D60"/><stop offset=".067" stop-color="#C7AD7E"/><stop offset=".14" stop-color="#E1CB9B"/><stop offset=".258" stop-color="#EED9AB"/><stop offset=".36" stop-color="#E1CB9B"/><stop offset=".489" stop-color="#AB8D60"/><stop offset=".549" stop-color="#C7AD7E"/><stop offset=".613" stop-color="#E1CB9B"/><stop offset=".72" stop-color="#EED9AB"/><stop offset=".839" stop-color="#E1CB9B"/><stop offset="1" stop-color="#AB8D60"/></linearGradient><linearGradient id="cpaint14_linear_0_1698" x1="6.807" y1="3.054" x2="155.937" y2="3.054" gradientUnits="userSpaceOnUse"><stop stop-color="#AB8D60"/><stop offset=".067" stop-color="#C7AD7E"/><stop offset=".14" stop-color="#E1CB9B"/><stop offset=".258" stop-color="#EED9AB"/><stop offset=".36" stop-color="#E1CB9B"/><stop offset=".489" stop-color="#AB8D60"/><stop offset=".549" stop-color="#C7AD7E"/><stop offset=".613" stop-color="#E1CB9B"/><stop offset=".72" stop-color="#EED9AB"/><stop offset=".839" stop-color="#E1CB9B"/><stop offset="1" stop-color="#AB8D60"/></linearGradient><linearGradient id="cpaint15_linear_0_1698" x1="6.807" y1="3.055" x2="155.937" y2="3.055" gradientUnits="userSpaceOnUse"><stop stop-color="#AB8D60"/><stop offset=".067" stop-color="#C7AD7E"/><stop offset=".14" stop-color="#E1CB9B"/><stop offset=".258" stop-color="#EED9AB"/><stop offset=".36" stop-color="#E1CB9B"/><stop offset=".489" stop-color="#AB8D60"/><stop offset=".549" stop-color="#C7AD7E"/><stop offset=".613" stop-color="#E1CB9B"/><stop offset=".72" stop-color="#EED9AB"/><stop offset=".839" stop-color="#E1CB9B"/><stop offset="1" stop-color="#AB8D60"/></linearGradient><linearGradient id="cpaint16_linear_0_1698" x1="6.806" y1="3.054" x2="155.936" y2="3.054" gradientUnits="userSpaceOnUse"><stop stop-color="#AB8D60"/><stop offset=".067" stop-color="#C7AD7E"/><stop offset=".14" stop-color="#E1CB9B"/><stop offset=".258" stop-color="#EED9AB"/><stop offset=".36" stop-color="#E1CB9B"/><stop offset=".489" stop-color="#AB8D60"/><stop offset=".549" stop-color="#C7AD7E"/><stop offset=".613" stop-color="#E1CB9B"/><stop offset=".72" stop-color="#EED9AB"/><stop offset=".839" stop-color="#E1CB9B"/><stop offset="1" stop-color="#AB8D60"/></linearGradient><linearGradient id="cpaint17_linear_0_1698" x1="6.807" y1="3.054" x2="155.937" y2="3.054" gradientUnits="userSpaceOnUse"><stop stop-color="#AB8D60"/><stop offset=".067" stop-color="#C7AD7E"/><stop offset=".14" stop-color="#E1CB9B"/><stop offset=".258" stop-color="#EED9AB"/><stop offset=".36" stop-color="#E1CB9B"/><stop offset=".489" stop-color="#AB8D60"/><stop offset=".549" stop-color="#C7AD7E"/><stop offset=".613" stop-color="#E1CB9B"/><stop offset=".72" stop-color="#EED9AB"/><stop offset=".839" stop-color="#E1CB9B"/><stop offset="1" stop-color="#AB8D60"/></linearGradient><linearGradient id="cpaint18_linear_0_1698" x1="6.806" y1="3.054" x2="155.936" y2="3.054" gradientUnits="userSpaceOnUse"><stop stop-color="#AB8D60"/><stop offset=".067" stop-color="#C7AD7E"/><stop offset=".14" stop-color="#E1CB9B"/><stop offset=".258" stop-color="#EED9AB"/><stop offset=".36" stop-color="#E1CB9B"/><stop offset=".489" stop-color="#AB8D60"/><stop offset=".549" stop-color="#C7AD7E"/><stop offset=".613" stop-color="#E1CB9B"/><stop offset=".72" stop-color="#EED9AB"/><stop offset=".839" stop-color="#E1CB9B"/><stop offset="1" stop-color="#AB8D60"/></linearGradient><linearGradient id="cpaint19_linear_0_1698" x1="6.806" y1="3.053" x2="155.936" y2="3.053" gradientUnits="userSpaceOnUse"><stop stop-color="#AB8D60"/><stop offset=".067" stop-color="#C7AD7E"/><stop offset=".14" stop-color="#E1CB9B"/><stop offset=".258" stop-color="#EED9AB"/><stop offset=".36" stop-color="#E1CB9B"/><stop offset=".489" stop-color="#AB8D60"/><stop offset=".549" stop-color="#C7AD7E"/><stop offset=".613" stop-color="#E1CB9B"/><stop offset=".72" stop-color="#EED9AB"/><stop offset=".839" stop-color="#E1CB9B"/><stop offset="1" stop-color="#AB8D60"/></linearGradient><linearGradient id="cpaint20_linear_0_1698" x1="6.806" y1="3.054" x2="155.936" y2="3.054" gradientUnits="userSpaceOnUse"><stop stop-color="#AB8D60"/><stop offset=".067" stop-color="#C7AD7E"/><stop offset=".14" stop-color="#E1CB9B"/><stop offset=".258" stop-color="#EED9AB"/><stop offset=".36" stop-color="#E1CB9B"/><stop offset=".489" stop-color="#AB8D60"/><stop offset=".549" stop-color="#C7AD7E"/><stop offset=".613" stop-color="#E1CB9B"/><stop offset=".72" stop-color="#EED9AB"/><stop offset=".839" stop-color="#E1CB9B"/><stop offset="1" stop-color="#AB8D60"/></linearGradient><linearGradient id="cpaint21_linear_0_1698" x1="6.806" y1="3.055" x2="155.936" y2="3.055" gradientUnits="userSpaceOnUse"><stop stop-color="#AB8D60"/><stop offset=".067" stop-color="#C7AD7E"/><stop offset=".14" stop-color="#E1CB9B"/><stop offset=".258" stop-color="#EED9AB"/><stop offset=".36" stop-color="#E1CB9B"/><stop offset=".489" stop-color="#AB8D60"/><stop offset=".549" stop-color="#C7AD7E"/><stop offset=".613" stop-color="#E1CB9B"/><stop offset=".72" stop-color="#EED9AB"/><stop offset=".839" stop-color="#E1CB9B"/><stop offset="1" stop-color="#AB8D60"/></linearGradient><linearGradient id="cpaint22_linear_0_1698" x1="6.807" y1="3.055" x2="155.937" y2="3.055" gradientUnits="userSpaceOnUse"><stop stop-color="#AB8D60"/><stop offset=".067" stop-color="#C7AD7E"/><stop offset=".14" stop-color="#E1CB9B"/><stop offset=".258" stop-color="#EED9AB"/><stop offset=".36" stop-color="#E1CB9B"/><stop offset=".489" stop-color="#AB8D60"/><stop offset=".549" stop-color="#C7AD7E"/><stop offset=".613" stop-color="#E1CB9B"/><stop offset=".72" stop-color="#EED9AB"/><stop offset=".839" stop-color="#E1CB9B"/><stop offset="1" stop-color="#AB8D60"/></linearGradient><linearGradient id="cpaint23_linear_0_1698" x1="6.806" y1="3.054" x2="155.936" y2="3.054" gradientUnits="userSpaceOnUse"><stop stop-color="#AB8D60"/><stop offset=".067" stop-color="#C7AD7E"/><stop offset=".14" stop-color="#E1CB9B"/><stop offset=".258" stop-color="#EED9AB"/><stop offset=".36" stop-color="#E1CB9B"/><stop offset=".489" stop-color="#AB8D60"/><stop offset=".549" stop-color="#C7AD7E"/><stop offset=".613" stop-color="#E1CB9B"/><stop offset=".72" stop-color="#EED9AB"/><stop offset=".839" stop-color="#E1CB9B"/><stop offset="1" stop-color="#AB8D60"/></linearGradient><linearGradient id="cpaint24_linear_0_1698" x1="6.807" y1="3.054" x2="155.937" y2="3.054" gradientUnits="userSpaceOnUse"><stop stop-color="#AB8D60"/><stop offset=".067" stop-color="#C7AD7E"/><stop offset=".14" stop-color="#E1CB9B"/><stop offset=".258" stop-color="#EED9AB"/><stop offset=".36" stop-color="#E1CB9B"/><stop offset=".489" stop-color="#AB8D60"/><stop offset=".549" stop-color="#C7AD7E"/><stop offset=".613" stop-color="#E1CB9B"/><stop offset=".72" stop-color="#EED9AB"/><stop offset=".839" stop-color="#E1CB9B"/><stop offset="1" stop-color="#AB8D60"/></linearGradient><linearGradient id="cpaint25_linear_0_1698" x1="6.807" y1="3.054" x2="155.937" y2="3.054" gradientUnits="userSpaceOnUse"><stop stop-color="#AB8D60"/><stop offset=".067" stop-color="#C7AD7E"/><stop offset=".14" stop-color="#E1CB9B"/><stop offset=".258" stop-color="#EED9AB"/><stop offset=".36" stop-color="#E1CB9B"/><stop offset=".489" stop-color="#AB8D60"/><stop offset=".549" stop-color="#C7AD7E"/><stop offset=".613" stop-color="#E1CB9B"/><stop offset=".72" stop-color="#EED9AB"/><stop offset=".839" stop-color="#E1CB9B"/><stop offset="1" stop-color="#AB8D60"/></linearGradient><linearGradient id="cpaint26_linear_0_1698" x1="6.807" y1="3.054" x2="155.937" y2="3.054" gradientUnits="userSpaceOnUse"><stop stop-color="#AB8D60"/><stop offset=".067" stop-color="#C7AD7E"/><stop offset=".14" stop-color="#E1CB9B"/><stop offset=".258" stop-color="#EED9AB"/><stop offset=".36" stop-color="#E1CB9B"/><stop offset=".489" stop-color="#AB8D60"/><stop offset=".549" stop-color="#C7AD7E"/><stop offset=".613" stop-color="#E1CB9B"/><stop offset=".72" stop-color="#EED9AB"/><stop offset=".839" stop-color="#E1CB9B"/><stop offset="1" stop-color="#AB8D60"/></linearGradient><linearGradient id="cpaint27_linear_0_1698" x1="6.806" y1="3.054" x2="155.936" y2="3.054" gradientUnits="userSpaceOnUse"><stop stop-color="#AB8D60"/><stop offset=".067" stop-color="#C7AD7E"/><stop offset=".14" stop-color="#E1CB9B"/><stop offset=".258" stop-color="#EED9AB"/><stop offset=".36" stop-color="#E1CB9B"/><stop offset=".489" stop-color="#AB8D60"/><stop offset=".549" stop-color="#C7AD7E"/><stop offset=".613" stop-color="#E1CB9B"/><stop offset=".72" stop-color="#EED9AB"/><stop offset=".839" stop-color="#E1CB9B"/><stop offset="1" stop-color="#AB8D60"/></linearGradient><linearGradient id="cpaint28_linear_0_1698" x1="6.806" y1="3.054" x2="155.936" y2="3.054" gradientUnits="userSpaceOnUse"><stop stop-color="#AB8D60"/><stop offset=".067" stop-color="#C7AD7E"/><stop offset=".14" stop-color="#E1CB9B"/><stop offset=".258" stop-color="#EED9AB"/><stop offset=".36" stop-color="#E1CB9B"/><stop offset=".489" stop-color="#AB8D60"/><stop offset=".549" stop-color="#C7AD7E"/><stop offset=".613" stop-color="#E1CB9B"/><stop offset=".72" stop-color="#EED9AB"/><stop offset=".839" stop-color="#E1CB9B"/><stop offset="1" stop-color="#AB8D60"/></linearGradient><linearGradient id="cpaint29_linear_0_1698" x1="6.806" y1="3.054" x2="155.936" y2="3.054" gradientUnits="userSpaceOnUse"><stop stop-color="#AB8D60"/><stop offset=".067" stop-color="#C7AD7E"/><stop offset=".14" stop-color="#E1CB9B"/><stop offset=".258" stop-color="#EED9AB"/><stop offset=".36" stop-color="#E1CB9B"/><stop offset=".489" stop-color="#AB8D60"/><stop offset=".549" stop-color="#C7AD7E"/><stop offset=".613" stop-color="#E1CB9B"/><stop offset=".72" stop-color="#EED9AB"/><stop offset=".839" stop-color="#E1CB9B"/><stop offset="1" stop-color="#AB8D60"/></linearGradient><linearGradient id="cpaint30_linear_0_1698" x1="6.806" y1="3.055" x2="155.937" y2="3.055" gradientUnits="userSpaceOnUse"><stop stop-color="#AB8D60"/><stop offset=".067" stop-color="#C7AD7E"/><stop offset=".14" stop-color="#E1CB9B"/><stop offset=".258" stop-color="#EED9AB"/><stop offset=".36" stop-color="#E1CB9B"/><stop offset=".489" stop-color="#AB8D60"/><stop offset=".549" stop-color="#C7AD7E"/><stop offset=".613" stop-color="#E1CB9B"/><stop offset=".72" stop-color="#EED9AB"/><stop offset=".839" stop-color="#E1CB9B"/><stop offset="1" stop-color="#AB8D60"/></linearGradient><linearGradient id="cpaint31_linear_0_1698" x1="6.807" y1="3.054" x2="155.937" y2="3.054" gradientUnits="userSpaceOnUse"><stop stop-color="#AB8D60"/><stop offset=".067" stop-color="#C7AD7E"/><stop offset=".14" stop-color="#E1CB9B"/><stop offset=".258" stop-color="#EED9AB"/><stop offset=".36" stop-color="#E1CB9B"/><stop offset=".489" stop-color="#AB8D60"/><stop offset=".549" stop-color="#C7AD7E"/><stop offset=".613" stop-color="#E1CB9B"/><stop offset=".72" stop-color="#EED9AB"/><stop offset=".839" stop-color="#E1CB9B"/><stop offset="1" stop-color="#AB8D60"/></linearGradient><linearGradient id="cpaint32_linear_0_1698" x1="6.806" y1="3.054" x2="155.937" y2="3.054" gradientUnits="userSpaceOnUse"><stop stop-color="#AB8D60"/><stop offset=".067" stop-color="#C7AD7E"/><stop offset=".14" stop-color="#E1CB9B"/><stop offset=".258" stop-color="#EED9AB"/><stop offset=".36" stop-color="#E1CB9B"/><stop offset=".489" stop-color="#AB8D60"/><stop offset=".549" stop-color="#C7AD7E"/><stop offset=".613" stop-color="#E1CB9B"/><stop offset=".72" stop-color="#EED9AB"/><stop offset=".839" stop-color="#E1CB9B"/><stop offset="1" stop-color="#AB8D60"/></linearGradient><linearGradient id="cpaint33_linear_0_1698" x1="6.806" y1="3.055" x2="155.936" y2="3.055" gradientUnits="userSpaceOnUse"><stop stop-color="#AB8D60"/><stop offset=".067" stop-color="#C7AD7E"/><stop offset=".14" stop-color="#E1CB9B"/><stop offset=".258" stop-color="#EED9AB"/><stop offset=".36" stop-color="#E1CB9B"/><stop offset=".489" stop-color="#AB8D60"/><stop offset=".549" stop-color="#C7AD7E"/><stop offset=".613" stop-color="#E1CB9B"/><stop offset=".72" stop-color="#EED9AB"/><stop offset=".839" stop-color="#E1CB9B"/><stop offset="1" stop-color="#AB8D60"/></linearGradient><linearGradient id="cpaint34_linear_0_1698" x1="6.807" y1="3.054" x2="155.937" y2="3.054" gradientUnits="userSpaceOnUse"><stop stop-color="#AB8D60"/><stop offset=".067" stop-color="#C7AD7E"/><stop offset=".14" stop-color="#E1CB9B"/><stop offset=".258" stop-color="#EED9AB"/><stop offset=".36" stop-color="#E1CB9B"/><stop offset=".489" stop-color="#AB8D60"/><stop offset=".549" stop-color="#C7AD7E"/><stop offset=".613" stop-color="#E1CB9B"/><stop offset=".72" stop-color="#EED9AB"/><stop offset=".839" stop-color="#E1CB9B"/><stop offset="1" stop-color="#AB8D60"/></linearGradient><linearGradient id="cpaint35_linear_0_1698" x1="6.806" y1="3.054" x2="155.936" y2="3.054" gradientUnits="userSpaceOnUse"><stop stop-color="#AB8D60"/><stop offset=".067" stop-color="#C7AD7E"/><stop offset=".14" stop-color="#E1CB9B"/><stop offset=".258" stop-color="#EED9AB"/><stop offset=".36" stop-color="#E1CB9B"/><stop offset=".489" stop-color="#AB8D60"/><stop offset=".549" stop-color="#C7AD7E"/><stop offset=".613" stop-color="#E1CB9B"/><stop offset=".72" stop-color="#EED9AB"/><stop offset=".839" stop-color="#E1CB9B"/><stop offset="1" stop-color="#AB8D60"/></linearGradient><linearGradient id="cpaint36_linear_0_1698" x1="6.807" y1="3.055" x2="155.938" y2="3.055" gradientUnits="userSpaceOnUse"><stop stop-color="#AB8D60"/><stop offset=".067" stop-color="#C7AD7E"/><stop offset=".14" stop-color="#E1CB9B"/><stop offset=".258" stop-color="#EED9AB"/><stop offset=".36" stop-color="#E1CB9B"/><stop offset=".489" stop-color="#AB8D60"/><stop offset=".549" stop-color="#C7AD7E"/><stop offset=".613" stop-color="#E1CB9B"/><stop offset=".72" stop-color="#EED9AB"/><stop offset=".839" stop-color="#E1CB9B"/><stop offset="1" stop-color="#AB8D60"/></linearGradient><linearGradient id="cpaint37_linear_0_1698" x1="6.807" y1="3.054" x2="155.937" y2="3.054" gradientUnits="userSpaceOnUse"><stop stop-color="#AB8D60"/><stop offset=".067" stop-color="#C7AD7E"/><stop offset=".14" stop-color="#E1CB9B"/><stop offset=".258" stop-color="#EED9AB"/><stop offset=".36" stop-color="#E1CB9B"/><stop offset=".489" stop-color="#AB8D60"/><stop offset=".549" stop-color="#C7AD7E"/><stop offset=".613" stop-color="#E1CB9B"/><stop offset=".72" stop-color="#EED9AB"/><stop offset=".839" stop-color="#E1CB9B"/><stop offset="1" stop-color="#AB8D60"/></linearGradient><linearGradient id="cpaint38_linear_0_1698" x1="6.806" y1="3.055" x2="155.937" y2="3.055" gradientUnits="userSpaceOnUse"><stop stop-color="#AB8D60"/><stop offset=".067" stop-color="#C7AD7E"/><stop offset=".14" stop-color="#E1CB9B"/><stop offset=".258" stop-color="#EED9AB"/><stop offset=".36" stop-color="#E1CB9B"/><stop offset=".489" stop-color="#AB8D60"/><stop offset=".549" stop-color="#C7AD7E"/><stop offset=".613" stop-color="#E1CB9B"/><stop offset=".72" stop-color="#EED9AB"/><stop offset=".839" stop-color="#E1CB9B"/><stop offset="1" stop-color="#AB8D60"/></linearGradient><linearGradient id="cpaint39_linear_0_1698" x1="6.807" y1="3.054" x2="155.937" y2="3.054" gradientUnits="userSpaceOnUse"><stop stop-color="#AB8D60"/><stop offset=".067" stop-color="#C7AD7E"/><stop offset=".14" stop-color="#E1CB9B"/><stop offset=".258" stop-color="#EED9AB"/><stop offset=".36" stop-color="#E1CB9B"/><stop offset=".489" stop-color="#AB8D60"/><stop offset=".549" stop-color="#C7AD7E"/><stop offset=".613" stop-color="#E1CB9B"/><stop offset=".72" stop-color="#EED9AB"/><stop offset=".839" stop-color="#E1CB9B"/><stop offset="1" stop-color="#AB8D60"/></linearGradient><linearGradient id="cpaint40_linear_0_1698" x1="6.807" y1="3.054" x2="155.937" y2="3.054" gradientUnits="userSpaceOnUse"><stop stop-color="#AB8D60"/><stop offset=".067" stop-color="#C7AD7E"/><stop offset=".14" stop-color="#E1CB9B"/><stop offset=".258" stop-color="#EED9AB"/><stop offset=".36" stop-color="#E1CB9B"/><stop offset=".489" stop-color="#AB8D60"/><stop offset=".549" stop-color="#C7AD7E"/><stop offset=".613" stop-color="#E1CB9B"/><stop offset=".72" stop-color="#EED9AB"/><stop offset=".839" stop-color="#E1CB9B"/><stop offset="1" stop-color="#AB8D60"/></linearGradient><linearGradient id="cpaint41_linear_0_1698" x1="6.806" y1="3.054" x2="155.936" y2="3.054" gradientUnits="userSpaceOnUse"><stop stop-color="#AB8D60"/><stop offset=".067" stop-color="#C7AD7E"/><stop offset=".14" stop-color="#E1CB9B"/><stop offset=".258" stop-color="#EED9AB"/><stop offset=".36" stop-color="#E1CB9B"/><stop offset=".489" stop-color="#AB8D60"/><stop offset=".549" stop-color="#C7AD7E"/><stop offset=".613" stop-color="#E1CB9B"/><stop offset=".72" stop-color="#EED9AB"/><stop offset=".839" stop-color="#E1CB9B"/><stop offset="1" stop-color="#AB8D60"/></linearGradient></defs></svg></svg>